<svg xmlns="http://www.w3.org/2000/svg" height="500" width="500"  id="graphChange">
    <line x1="250" y1="0" x2="250" y2="500" stroke="black"></line>
    <line x1="0" y1="250" x2="500" y2="250" stroke="black"></line>

    <rect x="250" y="150" width="200" height="100" fill="rgba(22, 56, 178, 0.5)"></rect>

    <path d="M 250 450
             A 200 200 0 0 0 450 250
             L 250 250
			 Z" fill="rgba(22, 56, 178, 0.5)"/>
    <polygon points="250,250 50,250 250,50" fill-opacity="0.5" fill="#1638b2"></polygon>

    <polygon points="500,250 490,245 490,255" fill="#000000" stroke="#000000"></polygon>
    <polygon points="250,0 245,8 255,8" fill="#000000" stroke="#000000"></polygon>

    <line x1="50" y1="247" x2="50" y2="253" stroke="#000000"> </line>
    <line x1="150" y1="247" x2="150" y2="253" stroke="#000000"></line>
    <line x1="350" y1="247" x2="350" y2="253" stroke="#000000"></line>
    <line x1="450" y1="247" x2="450" y2="253" stroke="#000000"></line>

    <line x1="247" y1="50" x2="253" y2="50" stroke="#000000"></line>
    <line x1="247" y1="150" x2="253" y2="150" stroke="#000000"></line>
    <line x1="247" y1="350" x2="253" y2="350" stroke="#000000"></line>
    <line x1="247" y1="450" x2="253" y2="450" stroke="#000000"></line>

    <text x="260" y="50" font-size="16" fill="black">R</text> <text x="260" y="150" font-size="16" fill="black">R/2</text> <text x="260" y="350" font-size="16" fill="black">-R/2</text> <text x="260" y="450" font-size="16" fill="black">-R</text>
    <text x="50" y="240" font-size="16" fill="black">-R</text> <text x="150" y="240" font-size="16" fill="black">-R/2</text> <text x="350" y="240" font-size="16" fill="black">R/2</text> <text x="450" y="240" font-size="16" fill="black">R</text>
</svg>